<svg xmlns="http://www.w3.org/2000/svg" version="1.1" xmlns:xlink="http://www.w3.org/1999/xlink" xmlns:svgjs="http://svgjs.dev/svgjs" width="2000" height="1500" viewBox="0 0 2000 1500"><rect width="2000" height="1500" fill="#ffffff"></rect><g transform="matrix(0.75,0,0,0.75,249.2500000000001,-0.7499999999997726)"><svg viewBox="0 0 280 280" data-background-color="#ffffff" preserveAspectRatio="xMidYMid meet" height="2000" width="2000" xmlns="http://www.w3.org/2000/svg" xmlns:xlink="http://www.w3.org/1999/xlink"><g id="tight-bounds" transform="matrix(1,0,0,1,0.13999999999998636,0.13999999999995794)"><svg viewBox="0 0 279.72 279.72" height="279.72" width="279.72"><g><svg viewBox="0 0 279.72 279.72" height="279.72" width="279.72"><g><svg viewBox="0 0 279.72 279.72" height="279.72" width="279.72"><g id="textblocktransform"><svg viewBox="0 0 279.72 279.72" height="279.72" width="279.72" id="textblock"><g><svg viewBox="0 0 279.72 279.72" height="279.72" width="279.72"><g transform="matrix(1,0,0,1,73.92936372216631,73.93009627665214)"><svg viewBox="0 0 131.8612725556674 131.85980744669575" height="131.85980744669575" width="131.8612725556674"><g id="icon-0"><svg xmlns="http://www.w3.org/2000/svg" xmlns:xlink="http://www.w3.org/1999/xlink" version="1.1" x="0" y="0" viewBox="4.967 5 90.001 90" enable-background="new 0 0 100 100" xml:space="preserve" height="131.85980744669575" width="131.8612725556674" class="icon-jxe-0" data-fill-palette-color="accent" id="jxe-0"><g fill="#283132" data-fill-palette-color="accent"><polygon points="81.588,69.219 76.042,77.733 49.901,5 30.566,58.797 24.486,43.546 4.967,95 17.555,95 45,95 64.794,95 82.249,95    94.968,95  " fill="#283132" data-fill-palette-color="accent"></polygon></g></svg></g></svg></g><g id="text-0"><path d="M12.51 99.475l-2.163 0.901-2.173-0.865 1.407-3.535 2.33-0.995-0.104-0.636c-0.037-0.087-0.086-0.326-0.146-0.717-0.063-0.385-0.095-0.855-0.098-1.411-0.011-0.552 0.025-1.157 0.107-1.815 0.08-0.652 0.242-1.286 0.487-1.902v0c0.455-1.144 0.997-2.016 1.625-2.616 0.622-0.602 1.356-1.055 2.204-1.359v0c-0.086-0.272-0.162-0.651-0.227-1.139-0.065-0.487-0.098-1.029-0.098-1.627 0-0.598 0.055-1.224 0.165-1.879 0.103-0.658 0.277-1.294 0.522-1.909v0c0.428-1.076 0.981-1.994 1.658-2.754 0.671-0.763 1.431-1.343 2.28-1.739 0.849-0.397 1.761-0.606 2.735-0.629 0.968-0.025 1.971 0.169 3.01 0.582v0l13.391 5.33-1.644 4.131-12.982-5.167c-1.386-0.552-2.561-0.587-3.522-0.106-0.96 0.475-1.694 1.353-2.205 2.634v0c-0.302 0.758-0.525 1.491-0.669 2.197-0.138 0.709-0.199 1.25-0.182 1.624v0c0.48-0.011 0.971 0.023 1.473 0.1 0.5 0.084 0.986 0.22 1.458 0.407v0l13.775 5.483-1.641 4.122-13.373-5.323c-1.237-0.492-2.263-0.602-3.078-0.328-0.812 0.267-1.466 1.023-1.961 2.266v0c-0.235 0.591-0.401 1.162-0.498 1.713-0.093 0.561-0.142 1.053-0.145 1.477v0c-0.024 0.495-0.014 0.967 0.03 1.416v0l16.003 6.37-1.636 4.113z" fill="#336a86" data-fill-palette-color="primary"></path><path d="M66.753 34.059v0c-0.949-1.545-1.58-3.038-1.892-4.48-0.316-1.447-0.34-2.803-0.073-4.067 0.268-1.264 0.8-2.424 1.597-3.479 0.797-1.055 1.831-1.973 3.103-2.755v0c1.3-0.799 2.592-1.329 3.875-1.592 1.278-0.259 2.52-0.225 3.726 0.102 1.2 0.33 2.35 0.955 3.449 1.875 1.099 0.919 2.125 2.154 3.078 3.705v0c0.953 1.551 1.6 3.046 1.943 4.484 0.342 1.439 0.397 2.787 0.165 4.046-0.238 1.261-0.748 2.419-1.53 3.473-0.788 1.057-1.826 1.982-3.114 2.773v0c-1.34 0.823-2.664 1.366-3.972 1.627-1.302 0.258-2.561 0.223-3.776-0.106-1.21-0.333-2.37-0.963-3.482-1.89-1.112-0.927-2.144-2.166-3.097-3.716zM79.293 35.236v0c0.775-0.476 1.347-1.055 1.713-1.736 0.358-0.683 0.537-1.433 0.538-2.25 0.001-0.817-0.161-1.688-0.486-2.612-0.324-0.924-0.786-1.873-1.384-2.848v0c-1.293-2.104-2.638-3.488-4.036-4.153-1.389-0.662-2.864-0.514-4.427 0.446v0c-0.787 0.483-1.369 1.069-1.748 1.758-0.375 0.694-0.569 1.457-0.583 2.29-0.014 0.833 0.137 1.718 0.453 2.655 0.32 0.942 0.774 1.892 1.363 2.85v0c1.307 2.127 2.674 3.501 4.101 4.125 1.424 0.617 2.923 0.443 4.496-0.525z" fill="#336a86" data-fill-palette-color="primary"></path><path d="M136.079 10.795v0c0.066-1.812 0.369-3.405 0.908-4.778 0.539-1.38 1.271-2.521 2.195-3.425 0.924-0.904 2.009-1.574 3.257-2.01 1.248-0.436 2.618-0.627 4.109-0.573v0c1.525 0.056 2.894 0.33 4.108 0.823 1.207 0.493 2.222 1.21 3.045 2.151 0.816 0.941 1.426 2.098 1.832 3.472 0.405 1.374 0.574 2.971 0.508 4.789v0c-0.067 1.819-0.356 3.422-0.869 4.81-0.513 1.387-1.215 2.54-2.106 3.458-0.897 0.918-1.964 1.599-3.198 2.043-1.242 0.443-2.618 0.637-4.13 0.582v0c-1.571-0.058-2.974-0.34-4.207-0.847-1.227-0.507-2.255-1.234-3.084-2.182-0.822-0.947-1.439-2.115-1.851-3.503-0.411-1.388-0.584-2.991-0.517-4.81zM145.863 18.726v0c0.909 0.033 1.706-0.132 2.389-0.495 0.676-0.37 1.241-0.895 1.695-1.575 0.453-0.68 0.801-1.494 1.043-2.443 0.242-0.949 0.384-1.995 0.426-3.138v0c0.09-2.468-0.262-4.365-1.057-5.693-0.789-1.321-2.099-2.015-3.931-2.083v0c-0.923-0.034-1.732 0.131-2.429 0.494-0.697 0.37-1.282 0.897-1.755 1.583-0.474 0.686-0.839 1.506-1.095 2.461-0.256 0.962-0.405 2.004-0.446 3.127v0c-0.091 2.494 0.284 4.396 1.128 5.706 0.843 1.303 2.187 1.988 4.032 2.056z" fill="#336a86" data-fill-palette-color="primary"></path><path d="M203.017 39.801l0.275-0.383c-0.034-0.503 0.038-1.015 0.216-1.538 0.177-0.532 0.433-1.032 0.77-1.499v0c0.371-0.516 0.731-0.942 1.078-1.277 0.353-0.331 0.665-0.593 0.936-0.786v0c0.322-0.23 0.624-0.404 0.907-0.522v0l0.557-0.774c-0.146-0.921-0.117-1.86 0.086-2.819 0.203-0.958 0.678-1.956 1.424-2.994v0c0.676-0.94 1.445-1.665 2.306-2.174 0.861-0.51 1.778-0.811 2.751-0.903 0.973-0.092 1.985 0.031 3.037 0.367 1.051 0.327 2.103 0.87 3.157 1.628v0l0.016 0.012c0.739 0.531 1.328 1.001 1.769 1.408 0.45 0.406 0.803 0.751 1.061 1.035v0c0.295 0.335 0.51 0.626 0.646 0.872v0l5.089 2.894-1.957 2.722-2.73-1.963c0.036 0.248 0.048 0.546 0.038 0.892-0.01 0.347-0.056 0.714-0.136 1.102-0.082 0.378-0.199 0.764-0.351 1.157-0.157 0.39-0.356 0.753-0.598 1.09v0c-0.668 0.929-1.453 1.642-2.355 2.14-0.896 0.501-1.862 0.796-2.898 0.883-1.03 0.092-2.093-0.03-3.188-0.364-1.099-0.329-2.167-0.866-3.204-1.613v0l-0.017-0.011c-0.239-0.172-0.486-0.362-0.74-0.57-0.254-0.208-0.513-0.427-0.776-0.657-0.254-0.232-0.497-0.461-0.73-0.686-0.228-0.222-0.428-0.436-0.602-0.643v0l-1.664 2.314c-0.09 0.125-0.128 0.258-0.115 0.4 0.015 0.151 0.058 0.297 0.13 0.439 0.077 0.146 0.176 0.288 0.299 0.426 0.114 0.14 0.239 0.258 0.375 0.356v0l6.633 4.771c0.793 0.57 1.381 1.162 1.764 1.776 0.383 0.613 0.6 1.24 0.652 1.878 0.046 0.635-0.059 1.285-0.314 1.95-0.256 0.665-0.626 1.334-1.111 2.008v0c-0.61 0.847-1.379 1.522-2.308 2.024-0.934 0.507-1.973 0.79-3.12 0.847-1.146 0.058-2.383-0.131-3.709-0.566-1.318-0.437-2.683-1.163-4.096-2.179v0l-0.016-0.012c-1.163-0.836-2.113-1.709-2.852-2.619-0.738-0.91-1.262-1.815-1.572-2.714-0.319-0.897-0.43-1.768-0.333-2.613 0.102-0.841 0.407-1.615 0.915-2.322v0c0.34-0.473 0.767-0.854 1.28-1.144 0.514-0.29 1.019-0.512 1.517-0.664v0c0.575-0.18 1.177-0.307 1.808-0.382zM213.502 35.881l0.016 0.012c0.657 0.473 1.269 0.814 1.836 1.023 0.557 0.211 1.093 0.279 1.608 0.205 0.511-0.069 1.005-0.291 1.481-0.666 0.477-0.366 0.966-0.896 1.466-1.592v0c0.91-1.266 1.272-2.382 1.085-3.348-0.187-0.967-0.94-1.925-2.26-2.875v0l-0.016-0.011c-0.674-0.484-1.28-0.822-1.82-1.012-0.545-0.194-1.046-0.241-1.504-0.143-0.462 0.104-0.908 0.34-1.337 0.708-0.429 0.367-0.874 0.871-1.336 1.512v0c-0.449 0.625-0.79 1.208-1.023 1.749-0.229 0.536-0.324 1.053-0.286 1.55 0.042 0.492 0.231 0.974 0.567 1.447 0.331 0.469 0.838 0.949 1.523 1.441zM202.142 43.734v0c-0.207 0.288-0.382 0.628-0.524 1.02-0.148 0.388-0.168 0.823-0.06 1.305 0.098 0.483 0.361 1.005 0.788 1.568 0.424 0.568 1.1 1.187 2.029 1.855v0l0.016 0.012c0.885 0.637 1.734 1.09 2.545 1.36 0.806 0.266 1.544 0.385 2.216 0.358 0.673-0.019 1.266-0.161 1.778-0.428 0.509-0.26 0.912-0.597 1.209-1.01v0c0.379-0.527 0.567-1.006 0.564-1.436 0.001-0.436-0.2-0.799-0.602-1.089v0l-7.505-5.397c-0.241 0.049-0.601 0.223-1.08 0.521-0.479 0.299-0.937 0.752-1.374 1.361z" fill="#336a86" data-fill-palette-color="primary"></path><path d="M254.752 84.678v0c1.697-0.64 3.282-0.977 4.757-1.012 1.481-0.037 2.817 0.196 4.008 0.699 1.191 0.502 2.229 1.244 3.114 2.226 0.885 0.982 1.591 2.171 2.118 3.567v0c0.538 1.427 0.815 2.796 0.83 4.106 0.013 1.304-0.256 2.517-0.805 3.64-0.552 1.116-1.382 2.127-2.492 3.033-1.11 0.905-2.517 1.679-4.22 2.321v0c-1.703 0.642-3.293 0.996-4.772 1.06-1.478 0.064-2.812-0.137-4.003-0.604-1.194-0.472-2.234-1.192-3.121-2.159-0.889-0.973-1.601-2.167-2.135-3.582v0c-0.555-1.471-0.837-2.874-0.847-4.208-0.007-1.327 0.266-2.557 0.819-3.688 0.555-1.125 1.393-2.146 2.514-3.061 1.121-0.916 2.532-1.695 4.235-2.338zM251.224 96.768v0c0.321 0.851 0.781 1.522 1.381 2.011 0.603 0.48 1.306 0.798 2.108 0.954 0.802 0.155 1.688 0.161 2.657 0.017 0.969-0.144 1.988-0.417 3.058-0.821v0c2.31-0.871 3.924-1.931 4.841-3.178 0.913-1.238 1.046-2.715 0.399-4.431v0c-0.326-0.864-0.791-1.547-1.395-2.049-0.61-0.499-1.323-0.835-2.138-1.006-0.816-0.172-1.713-0.191-2.693-0.057-0.986 0.136-2.005 0.402-3.057 0.799v0c-2.335 0.881-3.944 1.963-4.825 3.247-0.875 1.281-0.987 2.786-0.336 4.514z" fill="#336a86" data-fill-palette-color="primary"></path><path d="M5.212 137.755c0-4.585 3.717-8.301 8.302-8.301 4.585 0 8.301 3.717 8.301 8.301 0 4.585-3.717 8.301-8.301 8.301-4.585 0-8.301-3.717-8.302-8.301z" fill="#336a86" data-fill-palette-color="primary"></path><path d="M257.905 137.755c0-4.585 3.717-8.301 8.302-8.301 4.585 0 8.301 3.717 8.301 8.301 0 4.585-3.717 8.301-8.301 8.301-4.585 0-8.301-3.717-8.302-8.301z" fill="#336a86" data-fill-palette-color="primary"></path></g><g id="text-1"><path d="M11.135 174.509v0c0.242-0.057 0.517-0.107 0.827-0.15v0c0.258-0.027 0.573-0.055 0.944-0.083 0.366-0.02 0.775-0.007 1.224 0.038v0c-0.002 0.605 0.015 1.215 0.052 1.829v0c0.037 0.529 0.098 1.1 0.182 1.713 0.085 0.612 0.211 1.18 0.38 1.702v0c0.259 0.803 0.537 1.458 0.834 1.967 0.302 0.5 0.624 0.878 0.966 1.133 0.342 0.255 0.718 0.395 1.126 0.418 0.408 0.023 0.851-0.042 1.329-0.196v0c0.535-0.172 0.967-0.392 1.295-0.66 0.329-0.268 0.582-0.595 0.759-0.983 0.177-0.388 0.287-0.845 0.329-1.371 0.046-0.535 0.055-1.15 0.028-1.844v0c-0.055-1.219-0.026-2.273 0.089-3.161 0.108-0.886 0.32-1.646 0.635-2.282 0.311-0.627 0.728-1.145 1.251-1.552 0.531-0.403 1.175-0.727 1.933-0.971v0c1.096-0.353 2.089-0.487 2.982-0.402 0.894 0.092 1.69 0.369 2.388 0.834 0.698 0.464 1.307 1.101 1.828 1.91 0.517 0.818 0.951 1.774 1.304 2.87v0c0.271 0.841 0.445 1.6 0.523 2.278 0.069 0.674 0.098 1.255 0.087 1.744v0c-0.021 0.569-0.085 1.078-0.193 1.528v0c-0.246 0.044-0.52 0.066-0.823 0.064v0c-0.262-0.007-0.573-0.033-0.932-0.079-0.364-0.038-0.768-0.125-1.213-0.263v0c0.105-0.371 0.173-0.783 0.203-1.236v0c0.032-0.404 0.024-0.876-0.024-1.416-0.047-0.54-0.178-1.141-0.391-1.803v0c-0.232-0.72-0.481-1.307-0.747-1.763-0.273-0.454-0.578-0.802-0.917-1.044-0.343-0.234-0.715-0.364-1.116-0.389-0.406-0.017-0.858 0.055-1.355 0.215v0c-0.56 0.181-1.003 0.4-1.327 0.659-0.324 0.259-0.566 0.59-0.724 0.993-0.154 0.394-0.246 0.874-0.275 1.438-0.035 0.567-0.04 1.24-0.014 2.019v0c0.05 1.158 0.027 2.167-0.069 3.027-0.089 0.858-0.281 1.595-0.574 2.21-0.294 0.615-0.714 1.133-1.26 1.555-0.542 0.414-1.246 0.76-2.112 1.039v0c-1.064 0.343-2.034 0.504-2.913 0.485-0.872-0.021-1.668-0.246-2.389-0.675-0.722-0.428-1.366-1.075-1.933-1.94-0.558-0.861-1.052-1.956-1.481-3.287v0c-0.254-0.79-0.437-1.553-0.548-2.291-0.111-0.738-0.176-1.388-0.196-1.951v0c-0.029-0.68-0.02-1.305 0.028-1.876z" fill="#8eaec4" data-fill-palette-color="secondary"></path><path d="M27.732 202.463l9.306-5.847 1.821 2.899-9.052 5.686c-0.963 0.605-1.558 1.243-1.784 1.915-0.226 0.672-0.06 1.452 0.499 2.341v0c0.274 0.436 0.555 0.809 0.844 1.118 0.294 0.305 0.576 0.559 0.846 0.761v0c0.293 0.227 0.585 0.415 0.875 0.564v0l11.152-7.005 1.826 2.907-11.61 7.293-0.628 2.077-0.85 0.534-1.639-2.609 0.398-1.744-0.325-0.518c-0.103-0.038-0.288-0.112-0.554-0.222-0.272-0.106-0.585-0.265-0.94-0.476-0.349-0.216-0.711-0.49-1.086-0.823-0.372-0.328-0.709-0.732-1.011-1.214v0c-0.477-0.759-0.784-1.499-0.92-2.22-0.136-0.72-0.116-1.405 0.061-2.053 0.174-0.654 0.498-1.265 0.972-1.831 0.468-0.563 1.068-1.074 1.799-1.533z" fill="#8eaec4" data-fill-palette-color="secondary"></path><path d="M45.85 234.603l-4.393 4.631-2.483-2.355 14.25-15.024-0.026-1.809 0.697-0.736 2.127 2.017 0.157 1.672 0.409 0.429c0.085-0.002 0.261 0.017 0.527 0.057 0.266 0.04 0.588 0.124 0.965 0.251 0.377 0.127 0.789 0.32 1.237 0.578 0.452 0.253 0.901 0.592 1.347 1.016v0c0.573 0.543 1.044 1.17 1.413 1.879 0.369 0.7 0.548 1.479 0.537 2.336-0.011 0.857-0.256 1.796-0.735 2.817-0.489 1.021-1.293 2.122-2.412 3.301v0c-0.972 1.024-1.99 1.787-3.056 2.289-1.071 0.497-2.126 0.769-3.166 0.815-1.045 0.042-2.051-0.128-3.017-0.51-0.966-0.382-1.838-0.941-2.615-1.677v0c-0.199-0.189-0.406-0.399-0.62-0.63-0.214-0.231-0.405-0.448-0.571-0.652v0c-0.2-0.236-0.391-0.468-0.572-0.695zM55.093 224.859l-7.544 7.952c0.094 0.163 0.242 0.368 0.443 0.613 0.191 0.246 0.423 0.498 0.694 0.756v0c0.578 0.548 1.208 0.934 1.891 1.157 0.683 0.233 1.376 0.304 2.079 0.215 0.708-0.085 1.423-0.324 2.146-0.717 0.714-0.393 1.402-0.939 2.066-1.638v0c0.815-0.859 1.401-1.627 1.756-2.304 0.361-0.682 0.545-1.309 0.554-1.882 0.009-0.573-0.138-1.104-0.44-1.593-0.297-0.494-0.693-0.976-1.188-1.445v0c-0.218-0.207-0.469-0.38-0.752-0.52-0.273-0.14-0.541-0.251-0.804-0.334v0c-0.296-0.106-0.597-0.193-0.901-0.26z" fill="#8eaec4" data-fill-palette-color="secondary"></path><path d="M72.236 254.695l-3.126 5.566-2.984-1.676 10.138-18.055-0.468-1.748 0.496-0.884 2.555 1.435 0.563 1.582 0.501 0.316c0.082-0.023 0.257-0.048 0.525-0.073 0.268-0.026 0.6-0.024 0.997 0.007 0.397 0.031 0.844 0.117 1.341 0.258 0.5 0.135 1.018 0.353 1.555 0.654v0c0.688 0.387 1.298 0.879 1.83 1.477 0.529 0.589 0.893 1.3 1.093 2.133 0.2 0.834 0.192 1.804-0.023 2.911-0.224 1.11-0.734 2.374-1.531 3.791v0c-0.691 1.231-1.492 2.22-2.403 2.968-0.917 0.744-1.873 1.266-2.87 1.565-1.003 0.296-2.019 0.378-3.05 0.245-1.03-0.133-2.012-0.462-2.946-0.987v0c-0.239-0.134-0.491-0.287-0.755-0.459-0.264-0.172-0.502-0.336-0.714-0.492v0c-0.252-0.18-0.494-0.358-0.724-0.534zM78.811 242.985l-5.366 9.557c0.131 0.135 0.324 0.297 0.578 0.486 0.245 0.192 0.532 0.379 0.859 0.563v0c0.694 0.39 1.4 0.61 2.116 0.659 0.719 0.059 1.409-0.042 2.068-0.301 0.665-0.256 1.301-0.663 1.906-1.22 0.596-0.556 1.13-1.253 1.602-2.094v0c0.58-1.033 0.96-1.921 1.139-2.664 0.183-0.749 0.208-1.403 0.076-1.96-0.132-0.558-0.404-1.037-0.816-1.437-0.409-0.406-0.911-0.776-1.506-1.111v0c-0.263-0.147-0.548-0.254-0.857-0.32-0.299-0.068-0.586-0.111-0.861-0.126v0c-0.313-0.03-0.626-0.041-0.938-0.032z" fill="#8eaec4" data-fill-palette-color="secondary"></path><path d="M99.79 264.053l6.145-19.322 3.157 1.004-6.164 19.38 0.695 0.926-0.611 1.923-0.871-0.277-0.019-0.038-0.009 0.029c-1.008-0.32-1.721-0.772-2.14-1.354-0.419-0.583-0.48-1.339-0.183-2.271z" fill="#8eaec4" data-fill-palette-color="secondary"></path><path d="M124.972 272.026l-3.342-16.741 3.587 0.34 1.969 12.195 0.388 3.243 1.001-3.111 4.336-11.597 3.687 0.35-9.492 23.015-3.457-0.328 3.362-7.172z" fill="#8eaec4" data-fill-palette-color="secondary"></path><path d="M172.471 257.977v0c-0.576-1.734-0.885-3.344-0.927-4.832-0.043-1.488 0.176-2.826 0.656-4.015 0.488-1.184 1.226-2.212 2.213-3.082 0.996-0.866 2.243-1.548 3.741-2.046v0c0.597-0.198 1.198-0.352 1.804-0.461 0.607-0.103 1.167-0.179 1.679-0.23v0c0.586-0.061 1.159-0.099 1.717-0.115v0c0.057 0.277 0.102 0.573 0.136 0.886v0c0.036 0.277 0.054 0.599 0.056 0.965 0.008 0.364-0.015 0.752-0.068 1.164v0c-0.425-0.028-0.882-0.024-1.372 0.011v0c-0.415 0.025-0.882 0.081-1.403 0.17-0.523 0.082-1.064 0.216-1.622 0.401v0c-0.902 0.299-1.655 0.75-2.259 1.353-0.602 0.609-1.042 1.343-1.32 2.204-0.285 0.863-0.397 1.842-0.336 2.936 0.06 1.094 0.302 2.279 0.725 3.556v0c0.42 1.264 0.925 2.33 1.517 3.198 0.594 0.875 1.255 1.55 1.984 2.027 0.723 0.479 1.501 0.764 2.335 0.854 0.834 0.09 1.701-0.015 2.603-0.314v0c0.565-0.188 1.095-0.409 1.588-0.665 0.487-0.253 0.911-0.496 1.271-0.729v0c0.428-0.262 0.814-0.542 1.159-0.839v0c0.186 0.199 0.367 0.425 0.542 0.677v0c0.152 0.224 0.313 0.496 0.482 0.813 0.169 0.318 0.311 0.693 0.427 1.127v0c-0.421 0.323-0.881 0.627-1.379 0.912v0c-0.419 0.266-0.901 0.535-1.445 0.808-0.546 0.266-1.118 0.498-1.715 0.696v0c-3.08 1.023-5.691 0.909-7.833-0.339-2.148-1.247-3.8-3.61-4.956-7.091z" fill="#8eaec4" data-fill-palette-color="secondary"></path><path d="M207.286 254.82l-12.234-19.53 2.917-1.828 2.856 4.56 1.165 2.161 0.076-0.048c0.027-0.096 0.116-0.294 0.268-0.594 0.146-0.297 0.349-0.633 0.61-1.011 0.258-0.383 0.575-0.771 0.952-1.165 0.373-0.4 0.798-0.749 1.275-1.047v0c0.76-0.476 1.503-0.784 2.229-0.922 0.726-0.139 1.419-0.123 2.079 0.047 0.66 0.171 1.277 0.487 1.85 0.95 0.57 0.456 1.084 1.05 1.543 1.781v0l5.914 9.442-2.917 1.828-5.734-9.153c-0.618-0.987-1.268-1.59-1.951-1.81-0.688-0.216-1.483-0.042-2.385 0.523v0c-0.437 0.274-0.819 0.564-1.147 0.873-0.325 0.314-0.599 0.612-0.824 0.895v0c-0.267 0.317-0.495 0.634-0.685 0.95v0l7.061 11.271z" fill="#8eaec4" data-fill-palette-color="secondary"></path><path d="M229.986 231.931v0c-0.642-0.607-1.1-1.214-1.372-1.821-0.273-0.617-0.383-1.241-0.33-1.872 0.053-0.631 0.253-1.271 0.598-1.92 0.341-0.653 0.807-1.332 1.398-2.035v0l2.308-2.721-0.926-0.876c-0.418-0.395-0.798-0.685-1.14-0.869-0.341-0.184-0.675-0.27-1.001-0.255-0.321 0.019-0.649 0.137-0.984 0.354-0.33 0.222-0.692 0.543-1.087 0.961v0c-0.4 0.423-0.73 0.866-0.992 1.328-0.261 0.462-0.472 0.884-0.632 1.267v0c-0.176 0.459-0.315 0.904-0.416 1.333v0c-0.404-0.05-0.763-0.132-1.079-0.246-0.315-0.105-0.588-0.215-0.819-0.332v0c-0.268-0.115-0.507-0.253-0.715-0.413v0c0.164-0.544 0.378-1.097 0.642-1.658v0c0.228-0.485 0.52-1.018 0.877-1.601 0.357-0.583 0.789-1.142 1.294-1.677v0c0.832-0.88 1.601-1.539 2.309-1.976 0.707-0.437 1.382-0.678 2.024-0.725 0.633-0.046 1.252 0.087 1.857 0.402 0.605 0.314 1.234 0.779 1.886 1.394v0l6.494 6.135 2.113 0.146 0.73 0.689-2.034 2.152-1.884-0.081-0.393 0.416c0.002 0.076-0.007 0.261-0.026 0.555-0.02 0.294-0.079 0.644-0.176 1.048-0.093 0.4-0.237 0.821-0.433 1.262-0.196 0.441-0.468 0.846-0.818 1.216v0c-0.551 0.584-1.138 1.029-1.758 1.336-0.621 0.306-1.253 0.478-1.895 0.515-0.638 0.032-1.268-0.07-1.891-0.308-0.618-0.243-1.194-0.617-1.729-1.123zM232.181 229.199v0c0.355 0.335 0.698 0.567 1.028 0.695 0.33 0.118 0.651 0.154 0.961 0.108 0.316-0.052 0.622-0.181 0.92-0.389 0.302-0.212 0.602-0.476 0.9-0.792v0c0.28-0.297 0.506-0.608 0.676-0.935 0.175-0.332 0.306-0.636 0.393-0.913v0c0.114-0.325 0.19-0.649 0.228-0.972v0l-3.13-2.957-2.052 2.479c-0.32 0.388-0.544 0.752-0.672 1.092-0.132 0.335-0.187 0.656-0.165 0.963 0.023 0.298 0.116 0.584 0.28 0.858 0.164 0.265 0.375 0.519 0.633 0.763z" fill="#8eaec4" data-fill-palette-color="secondary"></path><path d="M238.611 198.233v0c-0.16 0.255-0.354 0.465-0.583 0.629-0.229 0.164-0.472 0.281-0.728 0.35-0.26 0.074-0.522 0.096-0.787 0.064-0.268-0.026-0.518-0.111-0.751-0.257v0c-0.244-0.153-0.439-0.346-0.584-0.579-0.15-0.228-0.248-0.475-0.295-0.741-0.05-0.26-0.049-0.528 0.005-0.802 0.053-0.274 0.16-0.539 0.32-0.794v0c0.16-0.255 0.353-0.47 0.58-0.644 0.224-0.168 0.465-0.289 0.725-0.363 0.256-0.069 0.521-0.088 0.795-0.059 0.274 0.029 0.533 0.12 0.776 0.273v0c0.233 0.146 0.419 0.333 0.559 0.563 0.14 0.23 0.236 0.475 0.286 0.735 0.047 0.266 0.046 0.538-0.001 0.816-0.051 0.284-0.157 0.553-0.317 0.809zM251.514 208.475l-11.529-7.216 1.763-2.816 11.579 7.247 1.071-0.443 1.71 1.071-0.479 0.765-0.047 0.019 0.026 0.015c-0.557 0.891-1.172 1.469-1.844 1.736-0.672 0.266-1.422 0.14-2.25-0.378z" fill="#8eaec4" data-fill-palette-color="secondary"></path><path d="M264.648 188.439l-12.647-4.519-1.645 0.756-1.701-0.608 0.992-2.779 1.635-0.876 0.07-0.465c-0.038-0.092-0.087-0.294-0.145-0.607-0.053-0.31-0.088-0.678-0.107-1.104-0.016-0.432 0.003-0.912 0.056-1.44 0.058-0.519 0.182-1.047 0.374-1.582v0c0.302-0.844 0.696-1.549 1.182-2.115 0.486-0.565 1.044-0.991 1.672-1.279 0.628-0.287 1.312-0.43 2.05-0.429 0.73 0.005 1.502 0.153 2.315 0.443v0l10.492 3.749-1.159 3.242-10.17-3.634c-1.096-0.392-1.984-0.453-2.663-0.184-0.681 0.275-1.198 0.908-1.552 1.897v0c-0.178 0.498-0.301 0.972-0.37 1.424-0.06 0.447-0.091 0.852-0.093 1.214v0c-0.013 0.415 0.001 0.814 0.041 1.198v0l12.524 4.475z" fill="#8eaec4" data-fill-palette-color="secondary"></path></g></svg></g></svg></g></svg></g></svg></g><defs></defs></svg><rect width="279.72" height="279.72" fill="none" stroke="none" visibility="hidden"></rect></g></svg></g></svg>